# xmcd CD database file
#
# Track frame offsets:
#	150
#	11437
#	24372
#	36498
#	49805
#	62440
#	75402
#	85791
#	100834
#	110314
#	120969
#	132588
#	142564
#	155790
#	168614
#	181621
#	191245
#	203369
#	213608
#	224302
#	234144
#	245361
#	256368
#	269828
#
# Disc length: 3765 seconds
#
# Revision: 3
# Processed by: cddbd v1.5.2PL0 Copyright (c) Steve Scherf et al.
# Submitted via: CDex 1.40Beta9
#
DISCID=410eb318
DTITLE=Various Artist - The Complete Motown Singles Volume 1 [CD5]
DYEAR=2004
DGENRE=R&B/Soul
TTITLE0=The Marvelettes - Please Mr. Postman
TTITLE1=The Marvelettes - So Long Baby
TTITLE2=The Contours - The Stretch
TTITLE3=The Contours - Funny
TTITLE4=Debbie Dean - Itsy Bity Pity Love
TTITLE5=Debbie Dean - But I'm Afraid
TTITLE6=Rev. Columbus Mann - They Shall Be Mine
TTITLE7=Rev. Columbus Mann - Jesus Loves
TTITLE8=The Equadors - Someone To Call My Own
TTITLE9=The Equadors - You're My Desire
TTITLE10=Pete Hartfield - Love Me
TTITLE11=Pete Hartfield - Darling Tonight
TTITLE12=The Miracles - Everybody's Gotta Pay Some Dues
TTITLE13=The Miracles - I Can't Believe
TTITLE14=Joel Sebastian - Angel In Blue
TTITLE15=Joel Sebastian - Blue Cinderella
TTITLE16=Mary Wells - Strange Love
TTITLE17=Mary Wells - Come To Me
TTITLE18=Freddie Gorman - The Day Will Come
TTITLE19=Freddie Gorman - Just For You
TTITLE20=Popcorn And The Mohawks - Have I The Right
TTITLE21=Popcorn And The Mohawks - Real Good Lovin'
TTITLE22=The Satintones - Zing Went The Strings Of My Heart
TTITLE23=The Satintones - Faded Letter
EXTD=YEAR: 2004
EXTT0=
EXTT1=
EXTT2=
EXTT3=
EXTT4=
EXTT5=
EXTT6=
EXTT7=
EXTT8=
EXTT9=
EXTT10=
EXTT11=
EXTT12=
EXTT13=
EXTT14=
EXTT15=
EXTT16=
EXTT17=
EXTT18=
EXTT19=
EXTT20=
EXTT21=
EXTT22=
EXTT23=
PLAYORDER=
